<svg fill="#000000" xmlns="http://www.w3.org/2000/svg" xmlns:xlink="http://www.w3.org/1999/xlink" version="1.1" x="0px" y="0px" viewBox="0 0 100 100" enable-background="new 0 0 100 100" xml:space="preserve"><g><g><path d="M52.361,66.908l-0.484-5.98c11.327-0.916,20.199-10.546,20.199-21.924c0-12.129-9.867-21.996-21.996-21.996    s-21.996,9.867-21.996,21.996c0,9.346,5.924,17.694,14.741,20.773l-1.979,5.664c-11.223-3.919-18.763-14.543-18.763-26.438    c0-15.438,12.559-27.996,27.996-27.996s27.996,12.559,27.996,27.996C78.076,53.485,66.78,65.742,52.361,66.908z"/></g><g><path d="M50.08,49.018c-5.521,0-10.014-4.492-10.014-10.014c0-5.521,4.492-10.012,10.014-10.012    c5.521,0,10.012,4.491,10.012,10.012C60.092,44.525,55.601,49.018,50.08,49.018z M50.08,34.992c-2.213,0-4.014,1.8-4.014,4.012    c0,2.213,1.801,4.014,4.014,4.014c2.212,0,4.012-1.801,4.012-4.014C54.092,36.792,52.292,34.992,50.08,34.992z"/></g><g><path d="M44.527,78.076c-0.763,0-1.502-0.291-2.062-0.821l-8.527-8.07c-0.646-0.612-0.988-1.48-0.932-2.369    c0.057-0.89,0.506-1.707,1.226-2.232l26.172-19.105c1.168-0.854,2.779-0.751,3.831,0.244c1.051,0.995,1.242,2.599,0.454,3.812    L47.044,76.71c-0.485,0.747-1.277,1.24-2.162,1.345C44.764,78.069,44.646,78.076,44.527,78.076z M40.68,67.304l3.293,3.117    l6.814-10.496L40.68,67.304z"/></g><g><path d="M78.814,8C79.793,8,81,8.877,81,9.836v80.328C81,91.123,79.793,92,78.814,92H21.186C20.207,92,19,91.123,19,90.164V9.836    C19,8.877,20.207,8,21.186,8H79 M78.814,2H21.186C16.898,2,13,5.57,13,9.836v80.328C13,94.43,16.898,98,21.186,98h57.629    C83.102,98,87,94.43,87,90.164V9.836C87,5.57,83.102,2,78.814,2L78.814,2z"/></g><g><path d="M66.84,88h-34C27.982,88,25,82.467,25,78.5v-14c0-1.954,0.764-6.5,7.84-6.5H35c1.657,0,3,1.343,3,3s-1.343,3-3,3h-2.16    c-1.15,0-1.651,0.163-1.822,0.239C31.009,64.294,31,64.379,31,64.5v14c0,1.721,1.366,3.5,1.84,3.5h34c0.61,0,2.16-1.906,2.16-3.5    v-14c0-0.075-0.005-0.13-0.01-0.167C68.83,64.244,68.258,64,66.84,64H65c-1.657,0-3-1.343-3-3s1.343-3,3-3h1.84    c7.571,0,8.16,4.976,8.16,6.5v14C75,82.894,71.436,88,66.84,88z"/></g><g><path d="M74.84,17.668c-1.746,0-3.168-1.422-3.168-3.168s1.422-3.166,3.168-3.166s3.166,1.42,3.166,3.166    S76.586,17.668,74.84,17.668z"/></g><g><path d="M25.84,17.668c-1.746,0-3.168-1.422-3.168-3.168s1.422-3.166,3.168-3.166c1.746,0,3.166,1.42,3.166,3.166    S27.586,17.668,25.84,17.668z"/></g></g></svg>